<?xml version="1.0" encoding="UTF-8"?>
<svg id="Layer_1" data-name="Layer 1" xmlns="http://www.w3.org/2000/svg" version="1.1" viewBox="0 0 500 500">
  <defs>
    <style>
      .cls-1 {
        fill: #191919;
      }

      .cls-1, .cls-2, .cls-3, .cls-4, .cls-5, .cls-6 {
        stroke-width: 0px;
      }

      .cls-2 {
        fill: #424242;
      }

      .cls-3 {
        fill: #6b6b6b;
      }

      .cls-4 {
        fill: #bdbdbd;
      }

      .cls-5 {
        fill: #949494;
      }

      .cls-6 {
        fill: #e6e6e6;
      }
    </style>
  </defs>
  <polygon class="cls-4" points="175 185.05 100 314.95 250 314.95 175 185.05"/>
  <polygon class="cls-6" points="250 314.95 175 444.86 325 444.86 250 314.95"/>
  <polygon class="cls-3" points="250 55.14 175 185.05 325 185.05 250 55.14"/>
  <polygon class="cls-2" points="400 314.95 325 444.86 475 444.86 400 314.95"/>
  <polygon class="cls-5" points="325 185.05 250 314.95 400 314.95 325 185.05"/>
  <polygon class="cls-1" points="100 314.95 25 444.86 175 444.86 100 314.95"/>
  <polygon class="cls-6" points="175 314.95 137.5 379.9 212.5 379.9 175 314.95"/>
  <polygon class="cls-3" points="250 314.95 287.5 250 212.5 250 250 314.95"/>
  <polygon class="cls-1" points="362.5 379.9 400 314.95 325 314.95 362.5 379.9"/>
  <polygon class="cls-4" points="250 185.05 212.5 250 287.5 250 250 185.05"/>
  <polygon class="cls-4" points="287.5 379.9 325 314.95 250 314.95 287.5 379.9"/>
  <polygon class="cls-1" points="212.5 250 250 185.05 175 185.05 212.5 250"/>
  <polygon class="cls-2" points="137.5 379.9 175 314.95 100 314.95 137.5 379.9"/>
  <polygon class="cls-5" points="325 444.86 362.5 379.9 287.5 379.9 325 444.86"/>
  <polygon class="cls-5" points="212.5 379.9 250 314.95 175 314.95 212.5 379.9"/>
  <polygon class="cls-2" points="287.5 250 325 185.05 250 185.05 287.5 250"/>
  <polygon class="cls-3" points="175 444.86 212.5 379.9 137.5 379.9 175 444.86"/>
  <polygon class="cls-6" points="325 314.95 287.5 379.9 362.5 379.9 325 314.95"/>
</svg>