<svg width="25" height="34" viewBox="0 -0.5 25 34" fill="none" xmlns="http://www.w3.org/2000/svg">
  <path d="M16.0957 12.9546C16.464 13.0413 16.4778 12.8285 16.6531 12.6276C17.0431 12.1785 17.831 10.7229 18.1009 10.1359C18.5697 9.12152 18.9459 8.04015 19.2216 6.93711C19.46 5.98377 20.7462 5.84392 21.1815 6.72438C21.1835 6.72832 21.1854 6.73423 21.1874 6.73817C21.6739 7.70924 22.0777 8.72364 22.4362 9.74789C23.1571 11.7984 23.7402 13.9296 24.0533 16.0825C24.1065 16.4469 24.1499 16.8152 24.1774 17.1836C25.3612 33.7331 1.51589 33.0378 0.921039 19.563C0.592097 12.1135 8.3567 9.39334 9.85565 2.87557C10.0014 2.24526 10.1058 1.60707 10.1846 0.966914C10.2988 0.0549368 11.4373 -0.283854 12.0282 0.417364C14.8981 3.81709 16.1863 8.56803 16.0957 12.9546Z" fill="#EEEEEE"/>
</svg>
